<svg xmlns="http://www.w3.org/2000/svg" width="38" height="38" viewBox="0 0 40 40"><defs><mask id="li73b" width="2" height="2" x="-1" y="-1"><path fill="#fff" d="M1 1h38v38H1z"/><path d="M19.8 38.6c10.383 0 18.8-8.417 18.8-18.8C38.6 9.417 30.183 1 19.8 1 9.417 1 1 9.417 1 19.8c0 10.383 8.417 18.8 18.8 18.8z"/></mask><filter id="li73a" width="66" height="66" x="-12" y="-12" filterUnits="userSpaceOnUse"><feOffset dx="2" dy="2" in="SourceGraphic" result="FeOffset1074Out"/><feGaussianBlur in="FeOffset1074Out" result="FeGaussianBlur1075Out" stdDeviation="1.2 1.2"/></filter></defs><g><g><g><g filter="url(#li73a)"><path fill="none" d="M19.8 38.6c10.383 0 18.8-8.417 18.8-18.8C38.6 9.417 30.183 1 19.8 1 9.417 1 1 9.417 1 19.8c0 10.383 8.417 18.8 18.8 18.8z" mask="url(&quot;#li73b&quot;)"/><path fill-opacity=".2" d="M19.8 38.6c10.383 0 18.8-8.417 18.8-18.8C38.6 9.417 30.183 1 19.8 1 9.417 1 1 9.417 1 19.8c0 10.383 8.417 18.8 18.8 18.8z"/></g><path fill="#fff" d="M19.8 38.6c10.383 0 18.8-8.417 18.8-18.8C38.6 9.417 30.183 1 19.8 1 9.417 1 1 9.417 1 19.8c0 10.383 8.417 18.8 18.8 18.8z"/><path fill="none" stroke="#112b4e" stroke-miterlimit="20" stroke-width=".8" d="M19.8 38.6c10.383 0 18.8-8.417 18.8-18.8C38.6 9.417 30.183 1 19.8 1 9.417 1 1 9.417 1 19.8c0 10.383 8.417 18.8 18.8 18.8z"/></g><g><path fill="none" stroke="#112b4e" stroke-linejoin="round" stroke-miterlimit="20" stroke-width="1.2" d="M11.4 15.08v0l8.4 4.32v0l8.4-4v0l-8.4-3.2v0z"/></g><g><path fill="none" stroke="#112b4e" stroke-miterlimit="20" stroke-width="1.2" d="M11.4 15.4v11.055l8.4 4.145v0l8.4-4.145v0V15.4v0"/></g><g><path fill="none" stroke="#112b4e" stroke-miterlimit="20" stroke-width="1.2" d="M20.2 19.4v11.2"/></g><g><path fill="none" stroke="#112b4e" stroke-linejoin="bevel" stroke-miterlimit="20" stroke-width="1.6" d="M15.4 21v0-4 0l8.8-3.2v0"/></g></g></g></svg>